<?xml version="1.0" encoding="utf-8"?>
<!-- Generator: Adobe Illustrator 18.1.0, SVG Export Plug-In . SVG Version: 6.00 Build 0)  -->
<!DOCTYPE svg PUBLIC "-//W3C//DTD SVG 1.1//EN" "http://www.w3.org/Graphics/SVG/1.1/DTD/svg11.dtd">
<svg version="1.1" id="Lager_1" xmlns:sketch="http://www.bohemiancoding.com/sketch/ns"
	 xmlns="http://www.w3.org/2000/svg" xmlns:xlink="http://www.w3.org/1999/xlink" x="0px" y="0px" viewBox="-1209 650 141 141"
	 enable-background="new -1209 650 141 141" xml:space="preserve">
<title>icon-backend</title>
<desc>Created with Sketch.</desc>
<g>
	<path fill="#454E53" d="M-1138.5,650c-38.9,0-70.5,31.6-70.5,70.5c0,38.9,31.6,70.5,70.5,70.5c38.9,0,70.5-31.6,70.5-70.5
		C-1068,681.6-1099.6,650-1138.5,650z M-1138.5,785.3c-35.8,0-64.8-29-64.8-64.8c0-35.8,29-64.8,64.8-64.8c35.8,0,64.8,29,64.8,64.8
		C-1073.7,756.3-1102.7,785.3-1138.5,785.3z"/>
	<path fill="#454E53" d="M-1115.6,734.1h-3.5v-6c0-2-1.6-3.6-3.6-3.6h-11.5c-2,0-3.6,1.6-3.6,3.6v6h-6.4v-6c0-2-1.6-3.6-3.6-3.6
		h-11.5c-2,0-3.6,1.6-3.6,3.6v6h-4c-2,0-3.6,1.6-3.6,3.6v25.4v2.8h2.8h53.1h2.8v-2.8v-25.4C-1111.9,735.7-1113.6,734.1-1115.6,734.1
		z M-1132.2,734.1v-4h7.4v4H-1132.2z M-1157.4,734.1v-4h7.4v4H-1157.4z M-1160.2,739.7h13.1h2.8h6.4h2.8h13.1h2.8h1.5v20.5h-47.4
		v-20.5h1.9H-1160.2z"/>
	<path fill="#454E53" d="M-1107.6,692.3l-3.4-0.8l1.4-5.8c0.5-2-0.7-3.9-2.7-4.4l-11.2-2.8c-2-0.5-3.9,0.7-4.4,2.7l-1.4,5.8
		l-6.3-1.5l1.4-5.8c0.5-2-0.7-3.9-2.7-4.4l-11.2-2.8c-2-0.5-3.9,0.7-4.4,2.7l-1.4,5.9l-3.9-1c-2-0.5-3.9,0.7-4.4,2.7l-6.1,24.7
		l-0.7,2.8l2.8,0.7l51.5,12.7l2.8,0.7l0.7-2.8l6.1-24.7C-1104.4,694.7-1105.6,692.7-1107.6,692.3z M-1122.7,684.4l7.2,1.8l-1,3.9
		l-7.2-1.8L-1122.7,684.4z M-1147.2,678.4l7.2,1.8l-1,3.9l-7.2-1.8L-1147.2,678.4z M-1115.8,717.2l-46-11.4l4.9-19.9l1.9,0.5v0
		l2.8,0.7l12.7,3.1l2.8,0.7l0,0l6.3,1.5l0,0l2.8,0.7l12.7,3.1l2.8,0.7l0,0l1.4,0.3L-1115.8,717.2z"/>
</g>
</svg>
