<?xml version="1.0" encoding="utf-8"?>
<!-- Generator: Adobe Illustrator 18.1.0, SVG Export Plug-In . SVG Version: 6.00 Build 0)  -->
<!DOCTYPE svg PUBLIC "-//W3C//DTD SVG 1.1//EN" "http://www.w3.org/Graphics/SVG/1.1/DTD/svg11.dtd">
<svg version="1.1" id="Lager_1" xmlns:sketch="http://www.bohemiancoding.com/sketch/ns"
	 xmlns="http://www.w3.org/2000/svg" xmlns:xlink="http://www.w3.org/1999/xlink" x="0px" y="0px" viewBox="-1209 650 141 141"
	 enable-background="new -1209 650 141 141" xml:space="preserve">
<title>icon-frontend</title>
<desc>Created with Sketch.</desc>
<g>
	<path fill="#454E53" d="M-1138.1,650.2c-38.6,0-70,31.3-70,70c0,38.6,31.3,70,70,70c38.6,0,70-31.3,70-70
		C-1068.1,681.5-1099.4,650.2-1138.1,650.2z M-1138.1,784.5c-35.5,0-64.3-28.8-64.3-64.3c0-35.5,28.8-64.3,64.3-64.3
		c35.5,0,64.3,28.8,64.3,64.3C-1073.7,755.7-1102.5,784.5-1138.1,784.5z"/>
	<path fill="#454E53" d="M-1152,711.1c1.4-2.3,2.7-5.2,2.7-8.2c0-3-1.2-5.8-3.4-8.1c-0.7-0.7-1.6-1.5-2.6-2.2
		c-3.1-2.5-5.1-4.3-5.1-7c0-3.6,3.5-7.9,4.8-9.3c1.1-1.1,1.1-2.9,0-4c-1.1-1.1-2.9-1.1-4,0c-0.7,0.7-6.5,6.7-6.5,13.3
		c0,5.7,4.1,9,7.1,11.4c0.8,0.6,1.5,1.2,2.1,1.8c1.2,1.2,1.8,2.5,1.8,4c0,3.1-2.4,6.4-3.8,8.1c-9.8,0.1-18.5,2.2-18.5,14.1v11.3
		c0,13.9,7.4,28.2,19.7,28.2c12.8,0,19.7-14.5,19.7-28.2V725C-1137.8,714.9-1144.1,711.9-1152,711.1z M-1171.6,725
		c0-5.4,1.7-8,11.3-8.4v11.2h-11.3V725z M-1143.4,736.2c0,9.4-4.4,22.6-14.1,22.6c-8.7,0-14.1-11.7-14.1-22.6v-2.8h28.2V736.2z
		 M-1143.4,727.8h-11.3v-11.2c9.5,0.4,11.3,3,11.3,8.4V727.8z"/>
	<path fill="#454E53" d="M-1129.4,764.4h25.4v-84.6h-25.4V764.4z M-1123.7,685.5h14.1v5.6h-8.5v5.6h8.5v5.6h-4.2v5.6h4.2v5.6h-8.5
		v5.6h8.5v5.6h-4.2v5.6h4.2v5.6h-8.5v5.6h8.5v5.6h-4.2v5.6h4.2v5.6h-14.1V685.5z"/>
</g>
</svg>
